<svg width="56" height="40" viewBox="0 0 56 40" fill="none" xmlns="http://www.w3.org/2000/svg">
<rect x="0.5" y="0.5" width="55" height="39" rx="19.5" stroke="#118657"/>
<g clip-path="url(#clip0_2304_9)">
<path d="M36.4245 27.3951L32.1405 22.9395C33.242 21.6301 33.8455 19.9826 33.8455 18.2675C33.8455 14.2603 30.5853 11 26.578 11C22.5708 11 19.3105 14.2603 19.3105 18.2675C19.3105 22.2747 22.5708 25.535 26.578 25.535C28.0824 25.535 29.516 25.0812 30.7417 24.2199L35.0583 28.7093C35.2387 28.8967 35.4813 29 35.7414 29C35.9875 29 36.2211 28.9062 36.3983 28.7355C36.775 28.3731 36.787 27.7721 36.4245 27.3951ZM26.578 12.8959C29.54 12.8959 31.9497 15.3055 31.9497 18.2675C31.9497 21.2295 29.54 23.6391 26.578 23.6391C23.6161 23.6391 21.2064 21.2295 21.2064 18.2675C21.2064 15.3055 23.6161 12.8959 26.578 12.8959Z" fill="#118657"/>
</g>
<defs>
<clipPath id="clip0_2304_9">
<rect width="18" height="18" fill="white" transform="translate(19 11)"/>
</clipPath>
</defs>
</svg>
